<svg xmlns="http://www.w3.org/2000/svg" viewBox="0 0 32 32"><defs><style>.a,.b{fill:#fff;}.b{stroke:#f6ae2d;}.b,.c{stroke-miterlimit:10;}.c{fill:none;stroke:#000842;}.d{fill:#000842;}</style></defs><rect class="a" width="32" height="32"/><rect class="b" x="2.94" y="3" width="17.11" height="25"/><line class="c" x1="4.97" y1="7.24" x2="10.23" y2="7.24"/><line class="c" x1="4.97" y1="9.58" x2="16.81" y2="9.58"/><line class="c" x1="4.97" y1="12.21" x2="16.81" y2="12.21"/><line class="c" x1="4.97" y1="17.47" x2="16.81" y2="17.47"/><line class="c" x1="4.97" y1="20.11" x2="16.81" y2="20.11"/><line class="c" x1="4.97" y1="22.74" x2="16.81" y2="22.74"/><rect class="a" x="7" y="15" width="23" height="11"/><path class="d" d="M14.77,24.74H9V23.22h1.84V18.6H9V17.18a7,7,0,0,0,.8-.05,2.17,2.17,0,0,0,.64-.17,1,1,0,0,0,.61-1H13v7.23h1.8Z"/><path class="d" d="M22.8,24.74H16.39V23.32c.54-.43,1-.84,1.46-1.22S18.66,21.35,19,21a6.2,6.2,0,0,0,.93-1.19,2.13,2.13,0,0,0,.29-1.05,1.2,1.2,0,0,0-.37-.93,1.45,1.45,0,0,0-1-.33,2.18,2.18,0,0,0-.63.09,3.57,3.57,0,0,0-.6.21,3.94,3.94,0,0,0-.51.27l-.32.21H16.6v-1.9A5.78,5.78,0,0,1,17.76,16a6.71,6.71,0,0,1,1.51-.19,3.51,3.51,0,0,1,2.35.7,2.44,2.44,0,0,1,.8,1.94A3.46,3.46,0,0,1,22.06,20a6.69,6.69,0,0,1-1.21,1.59c-.35.34-.69.65-1,.93l-.72.57h3.7Z"/><path class="d" d="M30.22,22.1A2.76,2.76,0,0,1,30,23.26a2.44,2.44,0,0,1-.7.9,3.26,3.26,0,0,1-1.08.56,4.87,4.87,0,0,1-1.52.2,8,8,0,0,1-1.75-.17,6,6,0,0,1-1.19-.38V22.48H24a5.14,5.14,0,0,0,1.13.52,3.61,3.61,0,0,0,1.18.23,4.39,4.39,0,0,0,.69-.06,1.44,1.44,0,0,0,.62-.24,1.22,1.22,0,0,0,.32-.36A1.27,1.27,0,0,0,28,22a.92.92,0,0,0-.17-.59.9.9,0,0,0-.45-.3,2.17,2.17,0,0,0-.67-.12H25.66V19.41H26a5.54,5.54,0,0,0,.73,0,1.83,1.83,0,0,0,.57-.14.9.9,0,0,0,.36-.31.94.94,0,0,0,.13-.54.73.73,0,0,0-.12-.43.83.83,0,0,0-.3-.26,1.47,1.47,0,0,0-.5-.14,4.64,4.64,0,0,0-.48,0,3,3,0,0,0-.65.08c-.22.05-.44.12-.65.19a4.89,4.89,0,0,0-.52.25l-.4.22H24V16.38A7.59,7.59,0,0,1,25.22,16a6.79,6.79,0,0,1,1.56-.18,5.9,5.9,0,0,1,1.35.14,3.24,3.24,0,0,1,1,.39,1.84,1.84,0,0,1,.66.7A2,2,0,0,1,30,18a2.12,2.12,0,0,1-.43,1.3,1.94,1.94,0,0,1-1.14.73v.08a2.61,2.61,0,0,1,.61.16,1.73,1.73,0,0,1,.58.36,1.77,1.77,0,0,1,.43.59A1.89,1.89,0,0,1,30.22,22.1Z"/></svg>