<?xml version="1.0" encoding="UTF-8"?>
<svg id="Ebene_1" xmlns="http://www.w3.org/2000/svg" version="1.1" viewBox="0 0 32 32">
  <!-- Generator: Adobe Illustrator 29.8.0, SVG Export Plug-In . SVG Version: 2.1.1 Build 160)  -->
  <defs>
    <style>
      .st0 {
        fill: none;
      }

      .st1 {
        fill: #fff;
      }

      .st2 {
        fill: #576bfd;
      }
    </style>
  </defs>
  <g id="Ebene_2">
    <path class="st2" d="M16,2v16H2V2h14M18,0H0v20h18V0h0Z"/>
    <rect class="st1" x="4" y="16" width="28" height="16"/>
    <rect class="st2" x="4" y="4" width="4" height="2"/>
    <rect class="st2" x="4" y="8" width="10" height="2"/>
    <rect class="st2" x="4" y="12" width="10" height="2"/>
    <g>
      <path class="st0" d="M18.3,21.6s0,0,0,0c0,.6-.3,1.4-1.1,2.5l-3.1,4h0c0,0,3.1-3.9,3.1-3.9.8-1.1,1.1-1.9,1.1-2.5Z"/>
      <path class="st0" d="M20.3,22.6c0,.4-.4.9-.7,1.4-.3.5-.8,1.1-1.4,1.9l-1.2,1.7h.2l1.1-1.6c.6-.8,1.1-1.4,1.4-1.9s.6-1,.7-1.4c.2-.4.2-.2.2-1.3s-.2-1.9-.8-2.5c0,0,0,0,0,0,.6.6.8,1.4.8,2.5s0,.9-.2,1.3Z"/>
      <path class="st0" d="M15.5,18.4c.5-.3,1.1-.5,1.8-.5s0,0,0,0h0c-.7-.1-1.3,0-1.8.4s-.9.8-1.2,1.4c-.3.6-.4,1.3-.4,2h0c0-.7.1-1.3.4-1.9.3-.6.7-1.1,1.2-1.4Z"/>
      <path class="st0" d="M27.4,20.5c-.2-.2-.5-.4-.9-.4s-.6.1-.8.3c-.2.2-.3.5-.3.8h-2.3s0,0,0,0h2.3c0-.3,0-.6.3-.8s.4-.3.8-.3.7.2.9.4c.2.2.3,0,.3.8,0,0,0,0,0,0,0-1-.1-.7-.3-.9Z"/>
      <path class="st0" d="M20.8,29.7s0,0,0,0h0v-2.1h-.1v2Z"/>
      <polygon class="st2" points="11.6 18 6.1 19.8 6.1 21.9 8.9 21.1 8.9 29.9 11.8 29.9 11.9 29.8 11.9 18 11.6 18"/>
      <path class="st1" d="M14.1,29.9h6.8s0,0,0-.1h-6.8Z"/>
      <path class="st2" d="M14.1,28.1v1.7h6.8s0,0,0,0v-2h-3.9s.1-.1.1-.1l1.2-1.7c.6-.8,1.1-1.4,1.4-1.9.3-.5.7-1,.8-1.4.2-.4.1-.2.1-1.3s-.2-1.9-.8-2.5c0,0,0,0,0,0-.5-.6-1.4-.9-2.3-.9,0,0,0,0,0,0-.7,0-1.3.2-1.8.5-.5.3-.9.8-1.2,1.4-.3.6-.4,1.2-.4,1.9h2.2c0-.5.1-.9.3-1.3.2-.3.4-.5.8-.5s.6,0,.8.4c.3.3.3.6.3,1.2s0,0,0,0c0,0,0,0,0,0,0,.6-.3,1.4-1.1,2.5l-3.1,4Z"/>
      <path class="st1" d="M18,20.3c-.2-.3-.4-.4-.8-.4s-.6.2-.8.5c-.2.4-.3.8-.3,1.3h-2.2s0,0,0,0h2.2c0-.5.1-.9.3-1.3.2-.3.4-.5.8-.5s.5,0,.8.4c.3.3.3.6.3,1.1,0,0,0,0,0,0,0-.6,0-.9-.3-1.2Z"/>
      <polygon class="st1" points="20.8 27.7 20.8 27.6 17.2 27.6 17.1 27.7 20.8 27.7"/>
      <path class="st1" d="M26.3,16.1s0,0,0,0c0,0,0,0,0,0h-.1Z"/>
      <path class="st2" d="M29.6,24.9c-.3-.4-.7-.8-1.2-1,.5-.3.8-.7,1.1-1.1.3-.4.4-.4.4-1.4s-.3-1.8-.9-2.4-1.5-.9-2.6-.9-1.2.1-1.7.4-.9.6-1.2,1.1-.4,1-.4,1.6h2.3c0-.3,0-.6.3-.8.2-.2.4-.3.8-.3s.7.2.9.4c.2.2.3,0,.3.9s0,0,0,0c0,0,0,0,0,0,0,1-.4,1.5-1.3,1.5h-1.1v2h1.1c.4,0,.7.2,1,.4.3.2.4.6.4,1.2s-.2.7-.4,1c-.3.3-.6.4-1,.4s-.7,0-.9-.4c-.3-.2-.4-.5-.4-.9h-2.3c0,.4,0,.9.2,1.3,0,.1.1.3.2.4.3.5.7.9,1.3,1.2.5.3.7.4,1.8.4s2-.3,2.7-.9c.7-.6,1-1.5,1-2.5s0-1.2-.4-1.7Z"/>
      <path class="st1" d="M27.7,21.5s0,0,0,0c0,1-.4,1.5-1.3,1.5h-1.1c0,0,1.1,0,1.1,0,.9,0,1.3-.5,1.3-1.5Z"/>
      <path class="st1" d="M26.4,28c-.4,0-.6-.2-.9-.4.2.3.5.4.9.4Z"/>
    </g>
  </g>
</svg>