<?xml version="1.0" encoding="UTF-8"?>
<svg id="Ebene_1" xmlns="http://www.w3.org/2000/svg" version="1.1" viewBox="0 0 32 32">
  <!-- Generator: Adobe Illustrator 29.8.0, SVG Export Plug-In . SVG Version: 2.1.1 Build 160)  -->
  <defs>
    <style>
      .st0 {
        fill: #576bfd;
      }
    </style>
  </defs>
  <path class="st0" d="M24.6,15l2.8-5,.6-1-.6-1-2.8-5-.6-1h-8.1l-.6,1-2.8,5h-6.6l-.6,1-2.8,5-.6,1,.6,1,2.8,5,.6,1h6.6l2.8,5,.6,1h8.1l.6-1,2.8-5,.6-1-.6-1-2.8-5ZM17.1,4h5.7l2.8,5-2.8,5h-5.7l-2.8-5,2.8-5ZM7.2,20l-2.8-5,2.8-5h5.3l2.8,5-2.8,5h-5.3ZM22.8,26h-5.7l-2.8-5,2.8-5h5.7l2.8,5-2.8,5Z"/>
</svg>