<svg xmlns="http://www.w3.org/2000/svg" viewBox="0 0 64 64"><defs><style>.a{fill:#000842;}.b,.f{fill:#fff;}.c,.e{fill:#f6ae2d;}.d{fill:none;}.d,.e,.f{stroke:#000842;stroke-miterlimit:10;stroke-width:2px;}</style></defs><rect class="a" width="64" height="64"/><rect class="b" x="10.66" y="14.01" width="27" height="38.99"/><path class="c" d="M36.66,15V52h-25V15h25m2-2h-29V54h29V13Z"/><line class="d" x1="14.23" y1="18.64" x2="21.64" y2="18.64"/><line class="d" x1="14.23" y1="23.9" x2="24.77" y2="23.9"/><line class="d" x1="14.16" y1="27.7" x2="24.77" y2="27.7"/><line class="d" x1="14.23" y1="31.5" x2="30.12" y2="31.5"/><line class="d" x1="14.2" y1="38.45" x2="30.12" y2="38.45"/><line class="d" x1="14.13" y1="42.25" x2="34.13" y2="42.25"/><line class="d" x1="14.2" y1="46.06" x2="34.2" y2="46.06"/><path class="e" d="M59.81,24.7a12,12,0,0,1-12,12H39.36L42,39.1a1.8,1.8,0,0,1,0,2.58l-.81.8a1.8,1.8,0,0,1-2.54,0l-6.93-6.93a1.78,1.78,0,0,1,0-2.54l6.93-6.94a1.8,1.8,0,0,1,2.54,0l.81.81a1.8,1.8,0,0,1,0,2.58l-2.59,2.42h8.48A7.19,7.19,0,0,0,54.4,21.77a1.79,1.79,0,0,1,.35-2l.91-.91a1.8,1.8,0,0,1,2.87.45A11.9,11.9,0,0,1,59.81,24.7Z"/><path class="f" d="M31.77,22.89A7,7,0,0,1,31.14,20a7.19,7.19,0,0,1,7.18-7.18H46.8L44.22,15.2a1.79,1.79,0,0,0,0,2.58l.8.81a1.8,1.8,0,0,0,2.54,0l6.94-6.94a1.8,1.8,0,0,0,0-2.54L47.52,2.18a1.8,1.8,0,0,0-2.54,0l-.8.8a1.79,1.79,0,0,0,0,2.58L46.8,8H38.32a12,12,0,0,0-12,12,11.78,11.78,0,0,0,1.29,5.39,1.79,1.79,0,0,0,2.86.45l.91-.91a1.79,1.79,0,0,0,.36-2Z"/></svg>