<?xml version="1.0" encoding="UTF-8"?>
<svg id="Ebene_1" xmlns="http://www.w3.org/2000/svg" version="1.1" viewBox="0 0 64 64">
  <!-- Generator: Adobe Illustrator 29.6.1, SVG Export Plug-In . SVG Version: 2.1.1 Build 9)  -->
  <defs>
    <style>
      .st0 {
        fill: #fff;
      }

      .st1 {
        fill: #0014a8;
      }

      .st2 {
        fill: #2d46fc;
      }
    </style>
  </defs>
  <rect class="st2" width="64" height="64"/>
  <rect class="st0" x="10.7" y="14" width="27" height="39"/>
  <rect class="st1" x="14.2" y="18.1" width="7.4" height="3"/>
  <rect class="st1" x="14.2" y="26.3" width="10.5" height="3"/>
  <rect class="st1" x="14.2" y="31.4" width="15.9" height="3"/>
  <rect class="st1" x="14.2" y="39.6" width="15.9" height="3"/>
  <rect class="st1" x="14.2" y="44.5" width="20" height="3"/>
  <g>
    <path class="st0" d="M34.2,25.9c-1.1,0-2.1-.6-2.6-1.6-.8-1.5-1.2-3.2-1.2-4.9,0-5.9,4.8-10.8,10.8-10.8h3c-.6-1.1-.4-2.5.5-3.5l.6-.6c.5-.5,1.3-.8,2-.8s1.5.3,2,.8l5.4,5.4c1.1,1.1,1.1,3,0,4.1l-5.4,5.4c-.5.5-1.3.8-2,.8s-1.5-.3-2-.8l-.6-.6c-.6-.6-.9-1.3-.9-2.1,0-.5.1-.9.3-1.3h-3c-2.2,0-4,1.8-4.1,4.1,0,.6.1,1.1.4,1.6l.4.8v.2c0,.8-.4,1.6-1,2.2l-.7.7c-.2.2-.5.4-.7.5-.4.2-.9.3-1.3.3h0Z"/>
    <path class="st2" d="M47.4,5.3c.4,0,.7.1,1,.4l5.4,5.4c.5.5.5,1.4,0,2l-5.4,5.4c-.3.3-.6.4-1,.4s-.7-.1-1-.4l-.6-.6s0,0,0,0c-.5-.6-.5-1.4,0-2l2-1.8h-6.6c-3.1,0-5.5,2.5-5.6,5.6,0,.8.2,1.5.5,2.2h0c.2.6.1,1.2-.3,1.6l-.7.7c-.1.1-.2.2-.3.3-.2.1-.4.2-.6.2-.5,0-1-.3-1.2-.8-.7-1.3-1-2.7-1-4.2,0-5.1,4.2-9.3,9.3-9.3h6.6l-2-1.9s0,0,0,0c-.5-.6-.5-1.4,0-2l.6-.6c.3-.3.6-.4,1-.4M47.4,2.3c-1.2,0-2.3.5-3.1,1.3l-.6.6c-.8.8-1.3,1.9-1.3,3h-1.1c-6.8,0-12.3,5.5-12.3,12.3,0,1.9.5,3.8,1.3,5.5.8,1.5,2.3,2.4,3.9,2.4s1.4-.2,2-.5c.4-.2.8-.5,1.1-.8l.7-.7c.8-.8,1.2-1.8,1.3-2.8l.4-.5-.7-1.7c-.1-.3-.2-.7-.2-1,0-1.4,1.1-2.5,2.6-2.5h1.1c0,1.1.5,2.1,1.2,2.9,0,0,0,0,0,0l.6.6c.8.8,1.9,1.3,3.1,1.3s2.3-.5,3.1-1.3l5.4-5.4c1.7-1.7,1.7-4.5,0-6.2l-5.4-5.4c-.8-.8-1.9-1.3-3.1-1.3h0Z"/>
  </g>
  <g>
    <path class="st0" d="M43.2,37.8c-.8,0-1.5-.3-2-.8l-5.4-5.4c-1.1-1.1-1.1-3,0-4.1l5.4-5.4c.5-.5,1.3-.8,2-.8s1.5.3,2,.8l.6.6c.6.6.9,1.3.9,2.1,0,.5-.1.9-.3,1.3h3c2.2,0,4-1.8,4.1-4.1,0-.6-.1-1.1-.4-1.6l-.4-.8v-.2c0-.8.4-1.7,1-2.3l.7-.7c.2-.2.5-.4.7-.5.4-.2.9-.3,1.3-.3,1.1,0,2.1.6,2.6,1.6.8,1.5,1.2,3.2,1.2,4.9,0,5.9-4.8,10.8-10.8,10.8h-3c.6,1.1.4,2.5-.5,3.5l-.6.6c-.5.5-1.3.8-2,.8Z"/>
    <path class="st2" d="M56.4,17.1c.5,0,1,.3,1.2.8.7,1.3,1,2.7,1,4.2,0,5.1-4.2,9.3-9.3,9.3h-6.6l2,1.9s0,0,0,0c.5.6.5,1.4,0,2l-.6.6c-.3.3-.6.4-1,.4s-.7-.1-1-.4l-5.4-5.4c-.5-.5-.5-1.4,0-2l5.4-5.4c.3-.3.6-.4,1-.4s.7.1,1,.4l.6.6s0,0,0,0c.5.6.5,1.4,0,2l-2,1.8h6.6c3.1,0,5.5-2.5,5.6-5.6,0-.8-.2-1.5-.5-2.2h0c-.2-.6-.1-1.2.3-1.6l.7-.7c.1-.1.2-.2.3-.3.2-.1.4-.2.6-.2M56.4,14.1c-.7,0-1.4.2-2,.5-.4.2-.8.5-1.1.8l-.7.7c-.8.8-1.2,1.8-1.3,2.8l-.4.5.7,1.7c.1.3.2.7.2,1,0,1.4-1.1,2.5-2.6,2.5h-1.1c0-1.1-.5-2.1-1.2-2.9,0,0,0,0,0,0l-.6-.6c-.8-.8-1.9-1.3-3.1-1.3s-2.3.5-3.1,1.3l-5.4,5.4c-1.7,1.7-1.7,4.5,0,6.2l5.4,5.4c.8.8,1.9,1.3,3.1,1.3s2.3-.5,3.1-1.3l.6-.6c.8-.8,1.3-1.9,1.3-3h1.1c6.8,0,12.3-5.5,12.3-12.3,0-1.9-.5-3.8-1.3-5.5-.8-1.5-2.3-2.4-3.9-2.4h0Z"/>
  </g>
</svg>